<mxfile host="Electron" modified="2024-12-18T06:32:56.194Z" agent="Mozilla/5.0 (Windows NT 10.0; Win64; x64) AppleWebKit/537.36 (KHTML, like Gecko) draw.io/22.0.3 Chrome/114.0.5735.289 Electron/25.8.4 Safari/537.36" etag="hXMH0ClAV_TykiicGeOF" version="22.0.3" type="device">
  <diagram name="Страница — 1" id="gPzH7qKQ4GXBRUrzy9dz">
    <mxGraphModel dx="1418" dy="828" grid="1" gridSize="10" guides="1" tooltips="1" connect="1" arrows="1" fold="1" page="1" pageScale="1" pageWidth="827" pageHeight="1169" math="0" shadow="0">
      <root>
        <mxCell id="0" />
        <mxCell id="1" parent="0" />
        <mxCell id="VhE1BTR3L4-EJrKhfnFT-1" style="edgeStyle=orthogonalEdgeStyle;rounded=0;orthogonalLoop=1;jettySize=auto;html=1;entryX=0;entryY=0.5;entryDx=0;entryDy=0;endArrow=none;endFill=0;" edge="1" parent="1" source="VhE1BTR3L4-EJrKhfnFT-2" target="VhE1BTR3L4-EJrKhfnFT-4">
          <mxGeometry relative="1" as="geometry" />
        </mxCell>
        <mxCell id="VhE1BTR3L4-EJrKhfnFT-2" value="пользователь" style="shape=umlActor;verticalLabelPosition=bottom;verticalAlign=top;html=1;" vertex="1" parent="1">
          <mxGeometry x="130" y="310" width="30" height="60" as="geometry" />
        </mxCell>
        <mxCell id="VhE1BTR3L4-EJrKhfnFT-3" style="edgeStyle=orthogonalEdgeStyle;rounded=0;orthogonalLoop=1;jettySize=auto;html=1;entryX=0;entryY=0.5;entryDx=0;entryDy=0;endArrow=none;endFill=0;" edge="1" parent="1" source="VhE1BTR3L4-EJrKhfnFT-4" target="VhE1BTR3L4-EJrKhfnFT-5">
          <mxGeometry relative="1" as="geometry" />
        </mxCell>
        <mxCell id="VhE1BTR3L4-EJrKhfnFT-4" value="Интерфейс&lt;br&gt;" style="rounded=0;whiteSpace=wrap;html=1;" vertex="1" parent="1">
          <mxGeometry x="320" y="310" width="120" height="60" as="geometry" />
        </mxCell>
        <mxCell id="VhE1BTR3L4-EJrKhfnFT-5" value="Модули вычислений" style="rounded=0;whiteSpace=wrap;html=1;" vertex="1" parent="1">
          <mxGeometry x="590" y="310" width="120" height="60" as="geometry" />
        </mxCell>
        <mxCell id="VhE1BTR3L4-EJrKhfnFT-6" value="" style="ellipse;html=1;" vertex="1" parent="1">
          <mxGeometry x="230" y="310" width="10" height="10" as="geometry" />
        </mxCell>
        <mxCell id="VhE1BTR3L4-EJrKhfnFT-7" value="" style="endArrow=open;html=1;rounded=0;align=center;verticalAlign=top;endFill=0;labelBackgroundColor=none;endSize=6;" edge="1" parent="1" source="VhE1BTR3L4-EJrKhfnFT-6">
          <mxGeometry relative="1" as="geometry">
            <mxPoint x="260" y="315" as="targetPoint" />
          </mxGeometry>
        </mxCell>
        <mxCell id="VhE1BTR3L4-EJrKhfnFT-8" value="нажать на кнопку" style="text;html=1;align=center;verticalAlign=middle;resizable=0;points=[];autosize=1;strokeColor=none;fillColor=none;" vertex="1" parent="1">
          <mxGeometry x="170" y="270" width="120" height="30" as="geometry" />
        </mxCell>
        <mxCell id="VhE1BTR3L4-EJrKhfnFT-9" value="" style="ellipse;html=1;" vertex="1" parent="1">
          <mxGeometry x="500" y="310" width="10" height="10" as="geometry" />
        </mxCell>
        <mxCell id="VhE1BTR3L4-EJrKhfnFT-10" value="" style="endArrow=open;html=1;rounded=0;align=center;verticalAlign=top;endFill=0;labelBackgroundColor=none;endSize=6;" edge="1" parent="1" source="VhE1BTR3L4-EJrKhfnFT-9">
          <mxGeometry relative="1" as="geometry">
            <mxPoint x="530" y="315" as="targetPoint" />
          </mxGeometry>
        </mxCell>
        <mxCell id="VhE1BTR3L4-EJrKhfnFT-11" value="генерация данных" style="text;html=1;align=center;verticalAlign=middle;resizable=0;points=[];autosize=1;strokeColor=none;fillColor=none;" vertex="1" parent="1">
          <mxGeometry x="450" y="270" width="130" height="30" as="geometry" />
        </mxCell>
        <mxCell id="VhE1BTR3L4-EJrKhfnFT-12" value="" style="ellipse;html=1;" vertex="1" parent="1">
          <mxGeometry x="520" y="350" width="10" height="10" as="geometry" />
        </mxCell>
        <mxCell id="VhE1BTR3L4-EJrKhfnFT-13" value="" style="endArrow=open;html=1;rounded=0;align=center;verticalAlign=top;endFill=0;labelBackgroundColor=none;endSize=6;exitX=0;exitY=0.5;exitDx=0;exitDy=0;" edge="1" parent="1" source="VhE1BTR3L4-EJrKhfnFT-12">
          <mxGeometry relative="1" as="geometry">
            <mxPoint x="500" y="355" as="targetPoint" />
            <mxPoint x="500" y="354.83" as="sourcePoint" />
          </mxGeometry>
        </mxCell>
        <mxCell id="VhE1BTR3L4-EJrKhfnFT-14" value="результат" style="text;html=1;align=center;verticalAlign=middle;resizable=0;points=[];autosize=1;strokeColor=none;fillColor=none;" vertex="1" parent="1">
          <mxGeometry x="475" y="370" width="80" height="30" as="geometry" />
        </mxCell>
        <mxCell id="VhE1BTR3L4-EJrKhfnFT-15" value="" style="ellipse;html=1;" vertex="1" parent="1">
          <mxGeometry x="250" y="350" width="10" height="10" as="geometry" />
        </mxCell>
        <mxCell id="VhE1BTR3L4-EJrKhfnFT-16" value="" style="endArrow=open;html=1;rounded=0;align=center;verticalAlign=top;endFill=0;labelBackgroundColor=none;endSize=6;exitX=0;exitY=0.5;exitDx=0;exitDy=0;" edge="1" parent="1" source="VhE1BTR3L4-EJrKhfnFT-15">
          <mxGeometry relative="1" as="geometry">
            <mxPoint x="230" y="355" as="targetPoint" />
            <mxPoint x="230" y="354.83" as="sourcePoint" />
          </mxGeometry>
        </mxCell>
        <mxCell id="VhE1BTR3L4-EJrKhfnFT-17" value="результат" style="text;html=1;align=center;verticalAlign=middle;resizable=0;points=[];autosize=1;strokeColor=none;fillColor=none;" vertex="1" parent="1">
          <mxGeometry x="195" y="370" width="80" height="30" as="geometry" />
        </mxCell>
      </root>
    </mxGraphModel>
  </diagram>
</mxfile>
